<svg width="90" height="90" viewBox="0 0 90 90" fill="none" xmlns="http://www.w3.org/2000/svg">
<rect width="90" height="90" rx="18.5263" fill="white"/>
<path d="M23.688 73.096C22.8453 73.096 22.0667 72.9573 21.352 72.68C20.6373 72.392 20.0187 71.992 19.496 71.48C18.9733 70.968 18.5627 70.3653 18.264 69.672C17.976 68.9787 17.832 68.2213 17.832 67.4C17.832 66.5787 17.976 65.8213 18.264 65.128C18.5627 64.4347 18.9733 63.832 19.496 63.32C20.0293 62.808 20.6533 62.4133 21.368 62.136C22.0827 61.848 22.8613 61.704 23.704 61.704C24.5147 61.704 25.2773 61.8427 25.992 62.12C26.7067 62.3867 27.3093 62.792 27.8 63.336L27.048 64.088C26.5893 63.6187 26.0827 63.2827 25.528 63.08C24.9733 62.8667 24.376 62.76 23.736 62.76C23.064 62.76 22.44 62.8773 21.864 63.112C21.288 63.336 20.7867 63.6613 20.36 64.088C19.9333 64.504 19.5973 64.9947 19.352 65.56C19.1173 66.1147 19 66.728 19 67.4C19 68.072 19.1173 68.6907 19.352 69.256C19.5973 69.8107 19.9333 70.3013 20.36 70.728C20.7867 71.144 21.288 71.4693 21.864 71.704C22.44 71.928 23.064 72.04 23.736 72.04C24.376 72.04 24.9733 71.9333 25.528 71.72C26.0827 71.5067 26.5893 71.1653 27.048 70.696L27.8 71.448C27.3093 71.992 26.7067 72.4027 25.992 72.68C25.2773 72.9573 24.5093 73.096 23.688 73.096ZM31.38 66.808H37.3V67.816H31.38V66.808ZM31.508 71.976H38.244V73H30.324V61.8H38.004V62.824H31.508V71.976ZM41.0271 73V61.8H45.2191C46.1685 61.8 46.9845 61.9547 47.6671 62.264C48.3498 62.5627 48.8725 63 49.2351 63.576C49.6085 64.1413 49.7951 64.8293 49.7951 65.64C49.7951 66.4293 49.6085 67.112 49.2351 67.688C48.8725 68.2533 48.3498 68.6907 47.6671 69C46.9845 69.3093 46.1685 69.464 45.2191 69.464H41.6831L42.2111 68.904V73H41.0271ZM42.2111 69L41.6831 68.424H45.1871C46.3071 68.424 47.1551 68.184 47.7311 67.704C48.3178 67.2133 48.6111 66.5253 48.6111 65.64C48.6111 64.744 48.3178 64.0507 47.7311 63.56C47.1551 63.0693 46.3071 62.824 45.1871 62.824H41.6831L42.2111 62.264V69ZM50.0008 73L55.1208 61.8H56.2888L61.4088 73H60.1608L55.4568 62.488H55.9368L51.2328 73H50.0008ZM52.0168 70.008L52.3688 69.048H58.8808L59.2328 70.008H52.0168ZM64.875 73V62.824H60.939V61.8H69.995V62.824H66.059V73H64.875Z" fill="#277EFF"/>
<path d="M47.756 49.4274L42.305 35.4174L28.2949 29.9664V27.9103L62.7224 15L49.8121 49.4274H47.756Z" fill="#277EFF"/>
</svg>
