<svg width="24" height="32" viewBox="0 0 24 32" fill="none" xmlns="http://www.w3.org/2000/svg">
<path d="M18.1741 21.4506L16.668 19.9445L19.6085 17.0398H10.7869V14.8882H19.6085L16.668 11.9836L18.1741 10.4774L23.6607 15.964L18.1741 21.4506ZM2.8977 31.7784C2.30003 31.7784 1.79201 31.5692 1.37365 31.1508C0.955278 30.7324 0.746094 30.2244 0.746094 29.6268V2.37304C0.746094 1.77538 0.955278 1.26736 1.37365 0.848988C1.79201 0.43062 2.30003 0.221436 2.8977 0.221436H18.6762C19.2738 0.221436 19.7819 0.43062 20.2002 0.848988C20.6186 1.26736 20.8278 1.77538 20.8278 2.37304V7.60863H18.6762V5.60046H2.8977V26.3993H18.6762V24.3912H20.8278V29.6268C20.8278 30.2244 20.6186 30.7324 20.2002 31.1508C19.7819 31.5692 19.2738 31.7784 18.6762 31.7784H2.8977Z" fill="#277EFF"/>
</svg>
