<svg width="35" height="41" viewBox="0 0 35 41" fill="none" xmlns="http://www.w3.org/2000/svg">
<path fill-rule="evenodd" clip-rule="evenodd" d="M7.78699 10.343L8.19478 15.5379C8.19698 15.882 8.29837 16.2176 8.48607 16.5021C8.55078 16.5648 8.62816 16.612 8.71265 16.6403C8.79715 16.6686 8.88666 16.6772 8.97478 16.6656H10.538C10.6311 16.6765 10.7254 16.664 10.8127 16.6292C10.9001 16.5943 10.978 16.5381 11.0397 16.4654C11.18 16.2303 11.2488 15.9572 11.2371 15.6813V9.95599C11.2321 9.92506 11.2321 9.8935 11.2371 9.86257C11.2303 9.8013 11.2109 9.74223 11.1802 9.6893C11.1495 9.63637 11.1082 9.59079 11.0591 9.55562C10.8593 9.45092 10.6348 9.40695 10.4118 9.42883C9.72888 9.42883 9.02656 9.44885 8.35013 9.42883C8.26201 9.42206 8.17348 9.43396 8.08998 9.46379C8.00649 9.49363 7.92981 9.54078 7.86466 9.60233C7.8054 9.70964 7.76744 9.82803 7.75299 9.95061C7.73854 10.0732 7.7479 10.1975 7.78051 10.3163V10.343H7.78699ZM31.4586 25.2269L34.6304 27.806C34.8324 27.9703 34.9629 28.2104 34.9932 28.4738C35.0236 28.7372 34.9513 29.0022 34.7922 29.2107L33.407 31.029L28.7109 27.2054L30.0993 25.3938C30.2587 25.1855 30.4916 25.051 30.7471 25.0197C31.0026 24.9884 31.2597 25.063 31.4619 25.2269H31.4586ZM18.8784 38.8196C19.0221 38.8114 19.1659 38.8335 19.301 38.8846C19.4362 38.9356 19.5598 39.0145 19.6643 39.1165C19.7688 39.2184 19.8521 39.3413 19.909 39.4776C19.9659 39.6138 19.9953 39.7606 19.9953 39.909C19.9953 40.0573 19.9659 40.2041 19.909 40.3404C19.8521 40.4767 19.7688 40.5995 19.6643 40.7015C19.5598 40.8034 19.4362 40.8824 19.301 40.9334C19.1659 40.9844 19.0221 41.0065 18.8784 40.9983H2.45973C1.80763 40.9975 1.18249 40.73 0.721384 40.2547C0.260281 39.7793 0.000856335 39.1349 0 38.4626L0 2.53572C0.000856335 1.86348 0.260281 1.21903 0.721384 0.743685C1.18249 0.26834 1.80763 0.000902524 2.45973 1.97397e-05H31.8341C32.1581 -0.00129721 32.4791 0.0632945 32.7788 0.190095C33.0786 0.316895 33.3511 0.503412 33.5808 0.738961C33.8105 0.974511 33.9928 1.25446 34.1174 1.56278C34.242 1.8711 34.3063 2.20173 34.3068 2.53572V20.8862C34.3068 22.074 33.8116 22.2575 33.3002 22.2942C32.7888 22.3309 32.1933 22.1507 32.1933 20.8862V2.53572C32.1941 2.48885 32.1853 2.44234 32.1674 2.39923C32.1496 2.35611 32.1231 2.31736 32.0898 2.28549C32.0257 2.21827 31.9384 2.17989 31.847 2.17872H2.45973C2.36793 2.17953 2.27992 2.21654 2.21376 2.28215C2.15066 2.35072 2.11486 2.44122 2.11343 2.53572V38.4593C2.11267 38.5062 2.1215 38.5527 2.13934 38.5958C2.15719 38.6389 2.18365 38.6777 2.21699 38.7095C2.2491 38.7432 2.28738 38.77 2.3296 38.7883C2.37182 38.8066 2.41715 38.8162 2.46297 38.8163L18.8784 38.8196ZM7.63163 32.6605C7.35812 32.645 7.10076 32.5221 6.91246 32.317C6.72415 32.1119 6.61922 31.8402 6.61922 31.5578C6.61922 31.2755 6.72415 31.0038 6.91246 30.7987C7.10076 30.5936 7.35812 30.4707 7.63163 30.4551H22.7266L21.3608 32.2702C21.2608 32.3923 21.171 32.5229 21.0922 32.6605H7.63163ZM8.04267 26.6015C7.77252 26.5861 7.51836 26.4646 7.33241 26.262C7.14646 26.0594 7.04284 25.7911 7.04284 25.5122C7.04284 25.2333 7.14646 24.965 7.33241 24.7624C7.51836 24.5598 7.77252 24.4383 8.04267 24.4228H25.3482C25.6283 24.4237 25.8966 24.5391 26.0944 24.7436C26.2922 24.9481 26.4033 25.2251 26.4033 25.5139C26.4049 25.535 26.4049 25.5562 26.4033 25.5773C26.3299 25.6836 26.264 25.795 26.2058 25.9109C26.0551 26.0438 25.9194 26.1937 25.8013 26.358L25.6524 26.5515C25.5537 26.5822 25.4512 26.5979 25.3482 26.5982L8.04267 26.6015ZM28.193 37.9455C27.0959 38.4459 26.2155 38.6928 25.1216 39.1933C22.7913 40.0208 22.8561 40.5779 23.0503 38.1924L23.5034 34.1286L28.015 28.123L32.7112 31.9399L28.1995 37.9455H28.193ZM24.3092 34.7859L27.3936 37.2949L25.2349 38.2958C23.5454 39.0665 23.5972 39.4369 23.8723 37.6285L24.3092 34.7925V34.7859ZM23.4257 9.24866C23.4513 9.2173 23.4794 9.18828 23.5098 9.16191C23.7917 8.92457 24.1499 8.80544 24.5131 8.82827H26.413C26.8228 8.79783 27.2309 8.90683 27.5749 9.13856C27.7362 9.27419 27.8578 9.45325 27.9264 9.65585C27.9949 9.85845 28.0077 10.0767 27.9632 10.2863L27.4454 15.8015C27.4398 16.2163 27.3035 16.6179 27.057 16.9459C26.932 17.0901 26.7756 17.2019 26.6007 17.2721C26.4258 17.3422 26.2372 17.3688 26.0505 17.3496H24.3837C24.1114 17.3705 23.8414 17.286 23.6263 17.1127C23.493 16.9982 23.383 16.8575 23.3027 16.699H22.6554C22.7174 16.9472 22.7107 17.2085 22.636 17.453C22.5479 17.7244 22.3848 17.9632 22.1667 18.1403C21.9532 18.3119 21.702 18.4265 21.4352 18.474C21.191 18.5168 20.9401 18.4938 20.707 18.4072C20.4697 18.6659 20.1706 18.8557 19.8397 18.9577C19.5365 19.0424 19.216 19.0343 18.9173 18.9344C18.6544 19.2385 18.3077 19.4526 17.9237 19.5483C17.5245 19.6283 17.111 19.5721 16.7456 19.3881C16.6276 19.4784 16.4993 19.5535 16.3637 19.6117C16.1526 19.702 15.9254 19.7452 15.697 19.7385C15.2489 19.7467 14.8139 19.5825 14.4768 19.278C14.204 18.9995 13.9766 18.6772 13.8036 18.3238L12.6741 16.2886H11.9038C11.856 16.5196 11.7599 16.737 11.6222 16.9258C11.4925 17.0955 11.3243 17.2297 11.1324 17.3164C10.9404 17.4031 10.7307 17.4397 10.5218 17.423H8.97801C8.78639 17.4389 8.59373 17.4106 8.41403 17.3402C8.23432 17.2698 8.07209 17.159 7.9391 17.0159C7.6405 16.6149 7.47281 16.1267 7.4601 15.6213V15.5879L7.0523 10.4064C7.00066 10.1845 6.99589 9.95382 7.03833 9.72989C7.08077 9.50595 7.16942 9.29405 7.29828 9.10853C7.42875 8.96597 7.5871 8.85358 7.76285 8.77881C7.93859 8.70404 8.12774 8.66859 8.31777 8.67479H10.4085C10.7711 8.6515 11.1324 8.73851 11.4475 8.92503C11.6555 9.05972 11.8129 9.26323 11.8941 9.50223H13.4864C13.8728 9.21662 14.2982 8.99174 14.7487 8.83494C15.2102 8.67774 15.6989 8.62315 16.1824 8.67479L16.7262 8.0075L16.7585 7.97414C16.9236 7.81088 17.1112 7.67371 17.3152 7.56709C17.5271 7.45093 17.7521 7.36239 17.9852 7.30351C18.3563 7.20707 18.7385 7.16329 19.1212 7.17339C19.5287 7.18072 19.9339 7.23784 20.3284 7.34355C20.9942 7.57087 21.6163 7.91639 22.1667 8.3645L22.581 8.65811L23.4063 9.22864L23.4257 9.24866ZM16.2245 18.831L15.4639 17.3496C15.4177 17.2605 15.4075 17.1563 15.4353 17.0595C15.4632 16.9627 15.527 16.8811 15.6128 16.8324C15.6997 16.7859 15.8009 16.7763 15.8946 16.8056C15.9883 16.8349 16.0672 16.9008 16.1145 16.9892L16.9721 18.6575C17.2133 18.7957 17.493 18.8452 17.7651 18.7976C17.9904 18.7393 18.1941 18.614 18.3509 18.4373L17.1307 16.4654C17.0784 16.38 17.061 16.2767 17.0826 16.1781C17.1041 16.0796 17.1628 15.9939 17.2456 15.9399C17.3284 15.8859 17.4287 15.8681 17.5243 15.8903C17.6199 15.9125 17.703 15.973 17.7554 16.0584L19.05 18.177C19.2332 18.2568 19.4368 18.2721 19.6293 18.2204C19.8257 18.1564 20.0029 18.0415 20.1439 17.8867L18.9788 15.6213C18.9511 15.5772 18.9327 15.5277 18.9245 15.476C18.9163 15.4242 18.9186 15.3712 18.9312 15.3204C18.9439 15.2696 18.9666 15.222 18.9979 15.1807C19.0293 15.1393 19.0686 15.1051 19.1133 15.0802C19.1581 15.0553 19.2074 15.0401 19.2581 15.0358C19.3089 15.0315 19.3599 15.038 19.408 15.055C19.4562 15.0719 19.5004 15.099 19.5379 15.1345C19.5755 15.1699 19.6055 15.213 19.6261 15.2609L20.8559 17.6465C20.9926 17.7183 21.1484 17.7418 21.2993 17.7132C21.4405 17.6901 21.5733 17.6291 21.6845 17.5364C21.7919 17.4522 21.8711 17.3356 21.911 17.2028C21.9576 17.0436 21.9449 16.8723 21.8754 16.7223C21.8593 16.6866 21.8494 16.6482 21.8463 16.6089C21.7917 16.5688 21.7482 16.5148 21.7201 16.4521L18.9755 11.3473C18.7134 10.8902 18.4836 10.8735 18.2667 11.0136C18.0639 11.1529 17.8743 11.3115 17.7003 11.4874C17.5871 11.5975 17.4706 11.7043 17.3573 11.801L16.8686 12.2181C16.5462 12.4862 16.1546 12.651 15.7423 12.6919C15.4975 12.7133 15.2511 12.6792 15.0205 12.5918C14.7892 12.5041 14.5847 12.3544 14.4283 12.158C14.2497 11.9282 14.1436 11.6477 14.124 11.354C14.1198 11.2981 14.1274 11.242 14.1464 11.1896C14.1654 11.1371 14.1953 11.0896 14.2341 11.0503L15.5643 9.41882C15.3567 9.43118 15.1513 9.46927 14.9526 9.53226C14.5445 9.67932 14.1596 9.88729 13.8101 10.1495C13.7454 10.2043 13.664 10.2338 13.5803 10.2329H11.975V15.5245H12.8845C12.9515 15.5258 13.0169 15.5456 13.0739 15.5821C13.1308 15.6185 13.1772 15.6701 13.2081 15.7314L14.438 17.9435C14.5734 18.2247 14.749 18.4834 14.959 18.7108C15.1677 18.892 15.434 18.9871 15.7067 18.9778C15.8321 18.9819 15.9568 18.958 16.0724 18.9077C16.1228 18.8861 16.1715 18.8605 16.218 18.831H16.2245ZM23.0567 15.9349L23.1085 9.9293L22.1893 9.29871L21.7621 9.00844C21.2774 8.6113 20.73 8.30317 20.1439 8.09759C19.8075 8.00751 19.4621 7.95824 19.1147 7.95078C18.7977 7.94134 18.4809 7.97613 18.1729 8.05421C17.9952 8.10102 17.8236 8.16934 17.6615 8.25774C17.5216 8.3318 17.3921 8.42495 17.2764 8.53466L16.6679 9.27869C16.6449 9.32301 16.6129 9.3617 16.574 9.39213L14.8878 11.444C14.9104 11.5478 14.9586 11.6438 15.0278 11.7228C15.097 11.8017 15.1848 11.8608 15.2827 11.8945C15.4114 11.9408 15.5483 11.9579 15.684 11.9445C15.9508 11.9159 16.2037 11.8081 16.4122 11.6342L16.888 11.2272C16.998 11.1371 17.1016 11.037 17.2116 10.9402C17.4218 10.7285 17.6516 10.5385 17.8978 10.373C18.4836 10.0094 19.0597 10.0094 19.6261 10.9769L22.2929 15.9349H23.0567ZM9.91012 14.3468C10.0036 14.3468 10.0949 14.3753 10.1726 14.4289C10.2503 14.4824 10.3109 14.5585 10.3467 14.6475C10.3824 14.7365 10.3918 14.8344 10.3736 14.9289C10.3553 15.0234 10.3103 15.1102 10.2442 15.1783C10.1782 15.2465 10.094 15.2928 10.0023 15.3116C9.91064 15.3304 9.81564 15.3208 9.72929 15.2839C9.64295 15.2471 9.56915 15.1846 9.51723 15.1045C9.46531 15.0244 9.43759 14.9302 9.43759 14.8339C9.43716 14.7698 9.44909 14.7062 9.47269 14.6469C9.49628 14.5876 9.53107 14.5338 9.57503 14.4884C9.619 14.4431 9.67126 14.4073 9.72878 14.3829C9.78631 14.3586 9.84795 14.3463 9.91012 14.3468ZM25.1216 14.3468C25.2152 14.3461 25.3069 14.3741 25.385 14.4272C25.4631 14.4804 25.5242 14.5562 25.5605 14.6451C25.5967 14.7341 25.6065 14.8321 25.5887 14.9269C25.5708 15.0216 25.5261 15.1087 25.4601 15.1771C25.3942 15.2456 25.31 15.2923 25.2182 15.3114C25.1265 15.3305 25.0313 15.321 24.9448 15.2842C24.8582 15.2475 24.7842 15.185 24.7322 15.1049C24.6801 15.0247 24.6523 14.9304 24.6523 14.8339C24.6514 14.7067 24.6992 14.5843 24.7852 14.4931C24.8712 14.402 24.9886 14.3494 25.1119 14.3468H25.1216Z" fill="#277EFF"/>
</svg>
