<svg width="48" height="46" viewBox="0 0 48 46" fill="none" xmlns="http://www.w3.org/2000/svg">
<path d="M32.0897 8.78161L34.1934 13.7579L39.554 14.2425C39.7697 14.2643 39.9572 14.3722 40.0865 14.5275L40.1081 14.5568C40.2279 14.7125 40.2867 14.9073 40.2731 15.104L40.2703 15.1342C40.2597 15.2316 40.2318 15.3262 40.1878 15.4135L40.1756 15.4362C40.1372 15.5072 40.0875 15.5716 40.0303 15.6274L35.9531 19.2236L37.154 24.533C37.1972 24.7441 37.1531 24.9543 37.0472 25.1247C36.9627 25.2609 36.8398 25.3684 36.6943 25.4335C36.5488 25.4987 36.3873 25.5183 36.2306 25.4901C36.1235 25.4723 36.0213 25.432 35.9306 25.3717L31.3462 22.6039L26.7244 25.3935C26.5369 25.5033 26.3222 25.5279 26.129 25.4787C25.9232 25.4265 25.7462 25.2941 25.6369 25.1105L25.6209 25.0802C25.5272 24.9071 25.4995 24.7054 25.5431 24.5132L26.7394 19.2236L22.6922 15.6558C22.6128 15.5856 22.548 15.5004 22.5013 15.4049C22.4547 15.3094 22.4271 15.2055 22.4203 15.0992C22.4072 14.8948 22.4709 14.6837 22.6172 14.5152C22.6903 14.4309 22.7756 14.3656 22.8684 14.3202C22.964 14.2728 23.069 14.2463 23.1759 14.2397L28.4981 13.7579L30.6094 8.76836C30.693 8.57088 30.8508 8.41496 31.0481 8.33482C31.2365 8.25814 31.4569 8.25341 31.6603 8.34144L31.6828 8.35185C31.7728 8.39351 31.8506 8.44935 31.9144 8.51372L31.9397 8.54117C32.0015 8.61122 32.0512 8.68979 32.0859 8.77404L32.0897 8.78161ZM0 24.6078H9.99937L9.59906 42.0858H0V24.6078ZM11.5781 40.6745L11.9128 26.1669L18.375 26.3193C21.1031 26.8797 23.8078 28.4434 26.5078 30.2505L31.5272 30.3679C33.7959 30.56 34.9322 32.9123 32.6897 34.3881C30.899 35.6499 28.5787 35.5221 26.204 35.2505C24.5644 35.1302 24.4415 37.3566 26.1544 37.404C26.7469 37.4645 27.3975 37.3396 27.9619 37.3519C30.9328 37.4191 33.3937 36.9032 34.9453 34.5689L35.7393 32.812L43.2918 29.2499C47.0568 28.096 49.6209 32.1049 46.8056 34.7838C41.3062 38.6298 35.6831 41.7687 29.9503 44.2753C25.7719 46.709 21.6544 46.5264 17.5903 43.9847L11.5781 40.6745ZM16.8656 10.3189C16.4822 10.1561 16.3022 9.70928 16.4634 9.32212C16.6247 8.93496 17.0672 8.75321 17.4506 8.91603L20.5978 10.2621C20.9812 10.4249 21.1612 10.8717 21 11.2589C20.9221 11.4449 20.7743 11.5921 20.5891 11.6682C20.4038 11.7443 20.1963 11.7432 20.0119 11.665L16.8656 10.3189ZM20.0653 5.36722C19.7719 5.0681 19.7728 4.58533 20.0681 4.28905C20.3644 3.99276 20.8425 3.99371 21.1359 4.29189L23.5397 6.74547C23.8331 7.04365 23.8322 7.52642 23.5369 7.8227C23.2406 8.11994 22.7625 8.11804 22.469 7.81987L20.0653 5.36722ZM24.8897 2.01247C24.7312 1.62342 24.9159 1.17852 25.3012 1.01854C25.6865 0.858566 26.1272 1.0441 26.2856 1.43315L27.585 4.62509C27.6227 4.71757 27.6419 4.81665 27.6417 4.91665C27.6414 5.01666 27.6217 5.11564 27.5836 5.20793C27.5454 5.30023 27.4897 5.38404 27.4195 5.45457C27.3492 5.52511 27.266 5.58099 27.1744 5.61902C26.789 5.779 26.3475 5.59346 26.189 5.20441L24.8897 2.01247ZM45.2418 8.91603C45.6253 8.75321 46.0678 8.93496 46.229 9.32212C46.3903 9.70928 46.2112 10.1561 45.8268 10.3189L42.6806 11.665C42.2972 11.8278 41.8547 11.646 41.6934 11.2589C41.6548 11.1668 41.6347 11.0679 41.634 10.9679C41.6334 10.8679 41.6522 10.7688 41.6896 10.6762C41.727 10.5836 41.7821 10.4994 41.8517 10.4283C41.9214 10.3572 42.0043 10.3008 42.0956 10.2621L45.2418 8.91603ZM41.5565 4.29189C41.8509 3.99371 42.329 3.99276 42.6243 4.28905C42.9197 4.58533 42.9215 5.0681 42.6272 5.36722L40.2234 7.81987C39.93 8.11804 39.4518 8.11994 39.1565 7.8227C38.8612 7.52642 38.8593 7.04365 39.1528 6.74547L41.5565 4.29189ZM36.4068 1.43315C36.5653 1.0441 37.0068 0.858566 37.3912 1.01854C37.7765 1.17852 37.9612 1.62342 37.8028 2.01247L36.5034 5.20441C36.4657 5.2969 36.4104 5.38099 36.3405 5.45189C36.2707 5.52278 36.1877 5.57909 36.0963 5.61759C36.0049 5.65609 35.9068 5.67603 35.8078 5.67628C35.7088 5.67652 35.6106 5.65707 35.519 5.61902C35.1337 5.45904 34.949 5.01414 35.1075 4.62509L36.4068 1.43315ZM30.5662 0.763906C30.5662 0.342669 30.9047 0 31.3228 0C31.7409 0 32.0793 0.342669 32.0793 0.763906V4.21521C32.0793 4.63645 31.7409 4.97912 31.3228 4.97912C30.9047 4.97912 30.5662 4.63645 30.5662 4.21521V0.763906Z" fill="#277EFF"/>
</svg>
