<svg width="46" height="52" viewBox="0 0 46 52" fill="none" xmlns="http://www.w3.org/2000/svg">
<path fill-rule="evenodd" clip-rule="evenodd" d="M32.6921 33.2496C32.6126 33.4463 32.4871 33.6304 32.3239 33.7936L30.6541 35.4634L30.6457 35.4717C30.4825 35.635 30.2984 35.7605 30.1017 35.84C29.8967 35.9279 29.6832 35.9739 29.4531 35.9739C29.2229 35.9739 29.0053 35.9279 28.8044 35.84C28.6077 35.7521 28.4278 35.6266 28.2729 35.4634L27.1849 34.3879C27.1179 34.4172 27.0509 34.4548 26.9882 34.4841C26.804 34.572 26.6115 34.6473 26.4274 34.7185C26.419 34.7268 26.4107 34.7268 26.3981 34.7268C26.214 34.8022 26.0173 34.8649 25.8039 34.9319C25.7369 34.9528 25.6699 34.9779 25.5988 34.9905V36.3171C25.5988 36.5473 25.5528 36.7649 25.4733 36.9657C25.3937 37.1624 25.2682 37.3424 25.105 37.5014L25.0882 37.5181C24.925 37.673 24.7409 37.7985 24.5442 37.878C24.3433 37.9576 24.1299 38.0036 23.9123 38.0036H21.5269C21.2968 38.0036 21.0833 37.9576 20.8783 37.878C20.6816 37.7985 20.4975 37.673 20.3342 37.5098C20.171 37.3466 20.0455 37.1624 19.966 36.9657C19.8865 36.7649 19.8404 36.5514 19.8404 36.3171V34.8022C19.7651 34.7729 19.694 34.7519 19.6186 34.7227C19.4219 34.6473 19.2294 34.5594 19.0286 34.4716C18.8319 34.3753 18.6394 34.2874 18.4552 34.1912C18.3967 34.1619 18.3381 34.1242 18.2795 34.0949L17.3463 35.0449L17.3253 35.0658C17.1621 35.2207 16.978 35.3378 16.7813 35.4173C16.5846 35.4969 16.3712 35.5345 16.1494 35.5345C15.9276 35.5345 15.7142 35.4969 15.5175 35.4173C15.3208 35.3378 15.1366 35.2248 14.9734 35.07C14.9651 35.0616 14.9567 35.0616 14.9567 35.0533L13.2911 33.3668C13.1279 33.2119 12.9982 33.0278 12.9145 32.8311C12.8266 32.6344 12.7806 32.4126 12.7806 32.1741C12.7806 31.9439 12.8266 31.7263 12.9145 31.517C13.0024 31.312 13.1279 31.1362 13.2911 30.9814L14.3583 29.9142C14.3206 29.8389 14.2913 29.7761 14.262 29.7092C14.1825 29.5251 14.0988 29.3326 14.0193 29.1275C13.944 28.935 13.8728 28.7299 13.8142 28.5249C13.7933 28.4579 13.7682 28.3868 13.7556 28.3198H12.429C12.1989 28.3198 11.9813 28.2738 11.7804 28.1943C11.5837 28.1148 11.4037 27.9892 11.2447 27.826L11.228 27.8093C11.0731 27.6461 10.9476 27.4619 10.8681 27.2736C10.7886 27.0727 10.7425 26.8593 10.7425 26.6417V24.2563C10.7425 23.7834 10.9058 23.3859 11.2364 23.0636C11.3996 22.9004 11.5837 22.7749 11.7804 22.6954C11.9813 22.6158 12.1947 22.5698 12.429 22.5698H13.944C13.9733 22.4945 13.9942 22.4233 14.0235 22.348C14.0988 22.1513 14.1867 21.9588 14.2746 21.758C14.3708 21.5571 14.4587 21.3688 14.5549 21.1846C14.5842 21.126 14.6219 21.0674 14.6512 21.0089L13.7012 20.0756L13.6803 20.0547C13.5255 19.8915 13.4083 19.7074 13.3288 19.5107C13.2493 19.314 13.2116 19.1006 13.2116 18.8788C13.2116 18.657 13.2493 18.4435 13.3288 18.2469C13.4083 18.0502 13.5213 17.866 13.6761 17.7028C13.6845 17.6945 13.6845 17.6861 13.6929 17.6861L15.3794 16.0163C15.5426 15.8531 15.7267 15.7276 15.9234 15.6481C16.1285 15.5602 16.3419 15.5141 16.5721 15.5141C16.8022 15.5141 17.0198 15.5602 17.2207 15.6481C17.4174 15.7359 17.5973 15.8615 17.7522 16.0247L18.8193 17.0918C18.8947 17.0542 18.9574 17.0249 19.0244 16.9956C19.2085 16.9161 19.401 16.8324 19.6061 16.7529C19.7986 16.6775 20.0036 16.6064 20.2087 16.5478C20.284 16.5269 20.3468 16.5018 20.4138 16.4892V15.1626C20.4138 14.9324 20.4598 14.7148 20.5393 14.514C20.6188 14.3173 20.7444 14.1373 20.9076 13.9783L20.9243 13.9616C21.0875 13.8067 21.2717 13.6812 21.46 13.6017C21.6608 13.5221 21.8743 13.4761 22.0919 13.4761H24.4773C24.7074 13.4761 24.9209 13.5221 25.1259 13.6017C25.3226 13.6812 25.5067 13.8067 25.6699 13.9699C25.8332 14.1331 25.9587 14.3173 26.0382 14.514C26.1177 14.7148 26.1638 14.9283 26.1638 15.1626V16.6775C26.2391 16.7068 26.3102 16.7277 26.3856 16.757C26.5822 16.8324 26.7747 16.9203 26.9756 17.0081C27.1723 17.1044 27.3648 17.1923 27.5489 17.2885C27.6075 17.3178 27.6661 17.3555 27.7247 17.3848L28.6579 16.4515C28.8211 16.2883 29.0053 16.1628 29.202 16.0749C29.407 15.987 29.6205 15.941 29.8506 15.941C30.0808 15.941 30.2942 15.987 30.4993 16.0749C30.7043 16.1628 30.8801 16.28 31.0433 16.4515L32.7131 18.1213L32.7214 18.1297C32.8846 18.2929 33.0102 18.477 33.0897 18.6737C33.1776 18.8788 33.2236 19.0922 33.2236 19.3224C33.2236 19.5525 33.1776 19.7701 33.0897 19.971C33.0018 20.1719 32.8763 20.3477 32.7131 20.5025L31.6459 21.5906C31.6752 21.6575 31.7129 21.7245 31.7422 21.7872C31.8175 21.9546 31.897 22.1388 31.9765 22.3396C31.9849 22.348 31.9849 22.3564 31.9849 22.3689C32.0602 22.5614 32.1314 22.7665 32.19 22.9716C32.2109 23.0385 32.236 23.1097 32.2485 23.1766H33.5751C33.8053 23.1766 34.0229 23.2227 34.2238 23.3022C34.4205 23.3817 34.6004 23.5072 34.7595 23.6704L34.7762 23.6872C34.931 23.8504 35.0566 24.0345 35.1361 24.2228C35.2156 24.4237 35.2616 24.6371 35.2616 24.8547V27.2401C35.2616 27.4703 35.2156 27.6837 35.1361 27.8888C35.0566 28.0855 34.931 28.2696 34.7678 28.4412C34.6046 28.6044 34.4205 28.7299 34.2238 28.8094C34.0229 28.889 33.8095 28.935 33.5751 28.935H32.0602C32.0309 29.0103 32.01 29.0815 31.9807 29.1568C31.9054 29.3535 31.8259 29.546 31.7296 29.7469C31.6334 29.9435 31.5455 30.136 31.4492 30.3202C31.4199 30.3788 31.3823 30.4374 31.353 30.4959L32.2862 31.4292C32.4494 31.5924 32.575 31.7765 32.6628 31.9732C32.7507 32.1783 32.7968 32.3917 32.7968 32.6219C32.7968 32.852 32.7507 33.0654 32.6628 33.2705L32.6921 33.2496ZM18.7231 48.3527C13.4083 47.3526 8.73799 44.5194 5.39429 40.5396C2.02547 36.5347 0 31.3748 0 25.7503C0 20.4648 1.78694 15.5895 4.79585 11.7017C7.86336 7.7303 12.2031 4.78834 17.2082 3.49103L17.9531 6.36185C13.5966 7.49176 9.81769 10.0529 7.14356 13.5138C4.53221 16.8951 2.97962 21.1386 2.97962 25.7503C2.97962 30.6592 4.74145 35.1537 7.66248 38.6313C10.458 41.9583 14.3206 44.3646 18.7273 45.3187V42.2512L24.3308 46.8504L18.7273 51.4495L18.7231 48.3527ZM27.2811 3.15206C32.5457 4.14387 37.1783 6.93099 40.5178 10.8564C43.9369 14.8739 46 20.0756 46 25.7503C46 30.7429 44.4098 35.3629 41.7063 39.1335C38.9318 43.0045 34.9854 45.9757 30.3821 47.5367L29.905 46.1306L29.4279 44.7245C29.5451 44.6868 29.6623 44.645 29.7753 44.6031C33.6296 43.2179 36.9356 40.6777 39.2833 37.4051C41.6352 34.1242 43.0204 30.1026 43.0204 25.7545C43.0204 20.7996 41.2293 16.2674 38.258 12.7772C35.4667 9.49631 31.6376 7.13186 27.2769 6.1819V9.23266L21.6776 4.62931L27.2811 0.0301514V3.15206ZM27.1639 25.7419C27.1639 26.0307 27.1346 26.3069 27.0844 26.5747H27.0761C27.0258 26.8467 26.9421 27.1062 26.8417 27.3531C26.7329 27.6126 26.6074 27.8553 26.4609 28.0687C26.3228 28.2905 26.1512 28.4956 25.9671 28.6797C25.7746 28.8722 25.5779 29.0312 25.3561 29.1819C25.1426 29.32 24.8999 29.4539 24.6405 29.5627C24.6321 29.5711 24.6195 29.5711 24.6112 29.5795C24.3768 29.6757 24.1257 29.7469 23.8663 29.8013C23.5942 29.8515 23.3222 29.8808 23.0335 29.8808C22.7447 29.8808 22.4685 29.8515 22.2007 29.8013C21.9287 29.751 21.6692 29.6673 21.4223 29.5669C21.1628 29.4581 20.9201 29.3326 20.7067 29.1861C20.4849 29.0396 20.2798 28.868 20.0957 28.6839C19.9116 28.4914 19.7484 28.2947 19.6019 28.0729C19.4638 27.8595 19.3299 27.6168 19.2211 27.3573C19.2127 27.3489 19.2127 27.3364 19.2043 27.328C19.1081 27.0937 19.0369 26.8426 18.9825 26.5831C18.9323 26.3111 18.903 26.0391 18.903 25.7503C18.903 25.4616 18.9323 25.1854 18.9825 24.9175C19.0328 24.6455 19.1164 24.386 19.2169 24.1391C19.3257 23.8797 19.4512 23.637 19.5977 23.4235C19.7358 23.2017 19.9074 22.9967 20.0915 22.8125C20.284 22.62 20.4807 22.461 20.7025 22.3104C20.9159 22.1723 21.1587 22.0383 21.4181 21.9253C21.4265 21.917 21.439 21.917 21.4474 21.9086C21.6901 21.8124 21.9412 21.7412 22.1965 21.6868C22.4685 21.6366 22.7405 21.6073 23.0293 21.6073C23.318 21.6073 23.5943 21.6366 23.8621 21.6868C24.1341 21.737 24.3936 21.8207 24.6405 21.9212C24.8999 22.03 25.1426 22.1555 25.3561 22.3062C25.5779 22.4526 25.7829 22.6242 25.9671 22.8084C26.1512 23.0009 26.3144 23.1975 26.4609 23.4193C26.599 23.6328 26.7329 23.8755 26.8417 24.135C26.8501 24.1433 26.8501 24.1559 26.8584 24.1642C26.9547 24.3986 27.0258 24.6497 27.0802 24.9092C27.1346 25.1812 27.1639 25.4532 27.1639 25.7419Z" fill="#277EFF"/>
</svg>
