<svg width="43" height="43" viewBox="0 0 43 43" fill="none" xmlns="http://www.w3.org/2000/svg">
<path fill-rule="evenodd" clip-rule="evenodd" d="M28.6193 3.34863L18.7948 9.14279L30.3222 10.6892L39.801 4.85306L28.6193 3.34863V3.34863ZM30.8944 20.542C37.1775 20.542 42.2703 25.5696 42.2703 31.7714C42.2703 37.9724 37.1775 43 30.8944 43C24.6113 43 19.5186 37.9724 19.5186 31.7714C19.5186 25.5696 24.6113 20.542 30.8944 20.542V20.542ZM27.9653 30.1871L29.6606 31.7554L33.5545 27.8507C33.9342 27.4699 34.1744 27.1632 34.6435 27.6397L36.166 29.1803C36.6667 29.6686 36.6411 29.9552 36.1694 30.409L30.53 35.8729C29.5372 36.836 29.7092 36.894 28.701 35.9073L25.4015 32.6699C25.1912 32.4446 25.215 32.2185 25.4449 31.9925L27.2118 30.1838C27.48 29.9064 27.692 29.93 27.9653 30.1871V30.1871ZM17.441 10.601L17.4333 22.5112L13.0524 19.5662L8.67067 22.0094L9.19008 9.4941L1.65103 8.48302V34.7878L16.8884 36.7327C17.1029 37.3286 17.3541 37.9076 17.6419 38.4657L0.791881 36.315C0.351663 36.2973 0 35.9384 0 35.5006V7.55263C0.0229901 7.21224 0.160931 6.97355 0.487049 6.81218L15.5379 0.071667C15.6724 0.0111537 15.8376 -0.0132197 15.9849 0.00695139L42.226 3.54026C42.6594 3.58985 42.9566 3.94116 42.9566 4.37988V4.38156L43 23.6088C42.5129 22.8978 41.6742 21.9035 41.303 21.2749V5.84649L31.4419 12.1441V17.1709C30.8915 17.1508 30.3403 17.1609 29.7909 17.2011V12.2575L17.441 10.601V10.601ZM10.4997 8.03085L20.0508 2.19468L15.9994 1.64922L3.76697 7.12736L10.4997 8.03085V8.03085Z" fill="#277EFF"/>
</svg>
