<svg width="210" height="217" viewBox="0 0 210 217" fill="none" xmlns="http://www.w3.org/2000/svg">
<path fill-rule="evenodd" clip-rule="evenodd" d="M82.2846 84.1016L187.432 103.202L110.415 50.0383C108.497 51.165 106.279 51.9043 104.008 52.1156C101.596 52.3444 99.0962 52.01 96.8077 50.989L18.647 94.9808V207.451L1.62417 204.547C0.990431 204.441 0.462318 204.019 0.462318 203.385V98.1142C0.0222238 96.1074 0.937619 93.9598 2.83883 92.9211L89.9247 43.8594C88.7276 41.0956 88.1291 37.5925 88.4107 33.2444L96.4029 33.7373C96.1916 36.9764 96.6141 39.3353 97.4239 40.99C98.7794 41.2541 100.012 42.0814 100.716 43.3841C100.821 43.5954 100.927 43.8066 100.997 44.0179C101.631 44.1763 102.3 44.2291 102.951 44.1939C102.194 42.6976 102.265 40.8316 103.286 39.3529C104.237 37.9622 105.803 37.2404 107.388 37.2932C107.106 36.9587 106.789 36.6947 106.49 36.4306C104.395 34.5822 102.371 32.7867 101.842 26.8718L101.825 26.8542L101.772 26.3261C97.9344 24.7945 95.2058 21.0273 95.2058 16.644C95.2058 12.3311 97.8288 8.61668 101.578 7.03234V0.501343H109.588V7.01474C113.373 8.58147 116.049 12.2959 116.049 16.6616C116.049 20.9393 113.479 24.6185 109.782 26.2204C110.046 28.9314 110.891 29.6884 111.771 30.463C113.355 31.8713 114.992 33.3148 116.084 36.9764C116.665 38.948 116.7 40.8316 116.295 42.5391L207.078 105.191C208.011 105.842 208.644 106.758 208.944 107.779C209.085 108.008 209.155 108.272 209.155 108.553V191.52C209.155 192.453 208.363 193.051 207.447 193.227L82.267 216.112C81.3516 216.288 80.5595 215.338 80.5595 214.405V85.8092C80.5771 84.8762 81.3516 83.9432 82.2846 84.1016ZM25.266 91.5656L44.683 88.3265V211.887L25.266 208.578V91.5656ZM51.302 87.2175L73.5708 83.5031C74.2045 83.3975 74.7326 84.0312 74.7326 84.665V215.619C74.7326 216.253 74.2045 216.887 73.5708 216.781L51.302 212.996V87.6576V87.2175ZM203.135 114.415V185.834H200.934V114.415H203.135ZM98.3393 100.191V202.188H91.7203V98.1495L98.3393 100.191ZM116.418 101.881V199.494H110.363V101.089L116.418 101.881ZM132.614 104.504V196.783H127.104V103.483L132.614 104.504ZM147.049 106.758V194.794H142.085V105.596L147.049 106.758ZM160.357 108.888V192.33H155.956V107.972L160.357 108.888ZM172.645 110.437V190.446H168.79V109.557L172.645 110.437ZM183.647 112.444V188.738H180.338V111.405L183.647 112.444ZM193.893 114.169V187.136H191.129V112.901L193.893 114.169Z" fill="black"/>
</svg>
