<svg width="301" height="179" viewBox="0 0 301 179" fill="none" xmlns="http://www.w3.org/2000/svg">
<path fill-rule="evenodd" clip-rule="evenodd" d="M102.142 141.4C101.459 145.67 101.673 150.034 102.771 154.218C103.868 158.401 105.824 162.314 108.517 165.709C111.211 169.104 114.582 171.908 118.418 173.945C122.255 175.981 126.475 177.206 130.811 177.542C135.148 177.879 139.507 177.319 143.615 175.898C147.724 174.478 151.491 172.227 154.681 169.288C157.872 166.349 160.415 162.785 162.152 158.822C163.888 154.858 164.78 150.579 164.772 146.256C164.761 144.63 164.63 143.007 164.381 141.4H218.534C218.336 142.905 218.238 144.422 218.241 145.94C218.241 154.363 221.607 162.44 227.599 168.396C233.591 174.351 241.717 177.697 250.191 177.697C258.665 177.697 266.791 174.351 272.783 168.396C278.775 162.44 282.141 154.363 282.141 145.94C282.145 144.043 281.974 142.149 281.628 140.283C286.683 140.139 291.485 138.052 295.025 134.462C298.564 130.871 300.565 126.057 300.607 121.03V58.7302L260.865 16.242H206.419V110.614H11.0073C8.90951 110.582 6.88293 111.37 5.3655 112.811C3.84806 114.251 2.96162 116.226 2.89772 118.311V133.655C2.94264 135.748 3.81739 137.739 5.3316 139.194C6.84581 140.649 8.87691 141.451 10.9829 141.424H19.8497C19.5885 143.03 19.4578 144.654 19.4589 146.28C19.3416 150.465 20.0696 154.631 21.5998 158.531C23.1299 162.431 25.4313 165.987 28.3677 168.988C31.3042 171.989 34.8161 174.375 38.696 176.004C42.5759 177.633 46.7449 178.472 50.9567 178.472C55.1685 178.472 59.3376 177.633 63.2175 176.004C67.0974 174.375 70.6093 171.989 73.5458 168.988C76.4822 165.987 78.7836 162.431 80.3137 158.531C81.8439 154.631 82.5719 150.465 82.4546 146.28C82.444 144.654 82.3133 143.031 82.0638 141.424H102.142V141.4ZM187.269 0.120789H10.4699C7.81778 0.133555 5.27792 1.18642 3.40255 3.05046C1.52718 4.91451 0.467922 7.43904 0.455078 10.0752L0.455078 102.748H197.283V10.0752C197.277 7.43707 196.22 4.90886 194.343 3.04344C192.466 1.17802 189.923 0.1272 187.269 0.120789V0.120789ZM38.829 146.426C38.829 162.28 63.0601 162.28 63.0601 146.426C63.0601 129.431 38.829 131.203 38.829 146.426V146.426ZM237.88 145.916C237.88 161.964 262.453 161.964 262.453 145.916C262.453 129.868 237.88 129.771 237.88 145.916ZM260.67 34.5969L280.724 58.3903V67.0336H226.375V34.5969H260.67ZM121.171 146.426C121.171 162.28 145.402 162.28 145.402 146.426C145.402 130.572 121.171 130.596 121.171 146.426Z" fill="black"/>
</svg>
