<svg width="275" height="163" viewBox="0 0 275 163" fill="none" xmlns="http://www.w3.org/2000/svg">
<path fill-rule="evenodd" clip-rule="evenodd" d="M228.99 108.979C214.602 108.979 203.014 120.548 203.014 134.728C203.014 148.988 214.683 160.478 228.99 160.478C243.367 160.478 254.956 148.908 254.956 134.728C254.956 120.469 243.287 108.979 228.99 108.979V108.979ZM36.6774 25.7766C37.962 25.7236 38.872 25.3043 39.3965 24.5083C40.8257 22.3908 38.8773 20.2946 37.5231 18.8139C33.6907 14.648 24.2862 4.61253 22.3968 2.40484C20.9623 0.833984 18.9176 0.833984 17.4884 2.40484C15.5294 4.67091 5.65925 15.1574 2.00879 19.2173C0.745582 20.6289 -0.81737 22.5553 0.499364 24.5083C1.03462 25.3043 1.93921 25.7236 3.22383 25.7766H10.7495V35.7749C10.7495 37.8765 12.4784 39.5959 14.5981 39.5959H25.2979C27.4175 39.5959 29.1517 37.8765 29.1517 35.7749V25.7766H36.6774V25.7766ZM36.6774 72.0692C37.962 72.0108 38.872 71.5915 39.3965 70.8008C40.8257 68.678 38.8773 66.5818 37.5231 65.1064C33.6907 60.9352 24.2862 50.8997 22.3968 48.6921C20.9623 47.1212 18.9176 47.1212 17.4884 48.6921C15.5294 50.9581 5.65925 61.4447 2.00879 65.5045C0.745582 66.9161 -0.81737 68.8425 0.499364 70.8008C1.03462 71.5915 1.93921 72.0108 3.22383 72.0692H10.7495V82.0675C10.7495 84.1637 12.4784 85.8832 14.5981 85.8832H25.2979C27.4175 85.8832 29.1517 84.1584 29.1517 82.0675V72.0692H36.6774V72.0692ZM58.0021 0.520874H98.7834C100.924 0.520874 102.68 2.25625 102.68 4.38433V36.7302C102.68 38.853 100.924 40.5883 98.7834 40.5883H58.0021C55.8611 40.5883 54.1108 38.853 54.1108 36.7302V4.38433C54.1108 2.25625 55.8611 0.520874 58.0021 0.520874V0.520874ZM116.035 46.5215H156.816C158.957 46.5215 160.713 48.2569 160.713 50.385V82.7308C160.713 84.8536 158.957 86.589 156.816 86.589H116.035C113.894 86.589 112.143 84.8536 112.143 82.7308V50.385C112.143 48.2569 113.894 46.5215 116.035 46.5215V46.5215ZM130.032 50.9104H142.819V64.3104L136.487 59.0088L130.032 64.3104V50.9104V50.9104ZM116.035 0.520874H156.816C158.957 0.520874 160.713 2.25625 160.713 4.38433V36.7302C160.713 38.853 158.957 40.5883 156.816 40.5883H116.035C113.894 40.5883 112.143 38.853 112.143 36.7302V4.38433C112.143 2.25625 113.894 0.520874 116.035 0.520874V0.520874ZM130.032 4.90441H142.819V18.3045L136.487 13.0028L130.032 18.3045V4.90441V4.90441ZM58.0021 46.5215H98.7834C100.924 46.5215 102.68 48.2569 102.68 50.385V82.7308C102.68 84.8536 100.924 86.589 98.7834 86.589H58.0021C55.8611 86.589 54.1108 84.8536 54.1108 82.7308V50.385C54.1108 48.2569 55.8611 46.5215 58.0021 46.5215V46.5215ZM71.9937 50.9104H84.7864V64.3104L78.4543 59.0088L71.9937 64.3104V50.9104ZM71.9937 4.90441H84.7864V18.3045L78.4543 13.0028L71.9937 18.3045V4.90441V4.90441ZM80.1725 111.266C65.7847 111.266 54.2018 122.835 54.2018 137.01C54.2018 151.275 65.8704 162.76 80.1725 162.76C94.5548 162.76 106.143 151.196 106.143 137.01C106.143 122.756 94.4746 111.266 80.1725 111.266ZM80.1725 127.108C74.6593 127.108 70.1846 131.544 70.1846 137.01C70.1846 142.482 74.6593 146.913 80.1725 146.913C85.6856 146.913 90.1604 142.482 90.1604 137.01C90.1604 131.544 85.6856 127.108 80.1725 127.108ZM169.459 95.1119H0.00157388V121.636C0.00157388 128.047 5.29527 133.301 11.7719 133.301H45.8678C46.7349 125.388 50.3533 118.256 55.7594 112.874L55.7754 112.853L55.8129 112.821C62.0593 106.639 70.6716 102.802 80.1725 102.802C89.684 102.802 98.3231 106.633 104.575 112.827C109.981 118.192 113.605 125.33 114.472 133.301H196.548C198.304 93.6897 255.592 88.2235 261.427 133.301H274.054C266.779 83.1182 274.064 94.2204 228.219 76.3413C227.829 70.5567 226.266 64.7456 224.173 59.03C215.106 34.2465 200.07 36.4012 169.459 36.1889V95.1119ZM199.348 49.7269L184.66 49.4934V76.3413H211.851C210.497 67.5848 206.986 57.2416 199.348 49.7269V49.7269ZM228.99 124.826C223.472 124.826 219.002 129.262 219.002 134.728C219.002 140.194 223.472 144.631 228.99 144.631C234.498 144.631 238.973 140.194 238.973 134.728C238.973 129.262 234.498 124.826 228.99 124.826Z" fill="black"/>
</svg>
