<svg width="322" height="178" viewBox="0 0 322 178" fill="none" xmlns="http://www.w3.org/2000/svg">
<path fill-rule="evenodd" clip-rule="evenodd" d="M242.608 43.7462L221.96 43.614V15.2994C221.96 11.0959 220.266 7.28886 217.528 4.51292C214.791 1.76342 211.037 0.0449829 206.892 0.0449829H69.6055C65.4603 0.0449829 61.7061 1.76342 58.9688 4.53936C56.2574 7.28886 54.5368 11.1223 54.5368 15.3259C54.5368 17.6259 56.3617 19.4501 58.6038 19.4501C60.8719 19.4501 62.6968 17.5995 62.6968 15.3259C62.6968 13.3959 63.4789 11.651 64.7303 10.382C65.9817 9.11305 67.7023 8.31992 69.6055 8.31992H206.892C208.769 8.31992 210.516 9.11305 211.767 10.382C213.018 11.651 213.8 13.3959 213.8 15.3259V144.87H190.78C188.512 144.87 186.687 146.72 186.687 149.02C186.687 151.32 188.512 153.171 190.78 153.171H217.867C220.135 153.171 221.96 151.32 221.96 149.02V144.314H238.437C240.314 101.248 301.292 95.2993 307.497 144.314H320.897C324.339 102.332 303.899 85.9933 272.798 82.3185C270.555 72.4573 266.306 63.3099 261.483 54.2683C255.721 43.5082 254.392 43.9312 242.608 43.7462ZM77.948 81.7633H82.9795C86.2383 81.7633 88.4022 81.9219 89.5232 82.2128C90.6442 82.5036 91.4524 83.0059 91.9738 83.6933C92.4952 84.3806 92.782 85.1473 92.808 85.9933C92.8602 86.8393 92.7298 88.5049 92.4431 90.99L91.3742 100.243C91.0874 102.596 90.8006 104.182 90.4878 104.975C90.1749 105.769 89.7317 106.403 89.1321 106.853C88.5325 107.302 87.8286 107.619 86.9944 107.804C86.1862 107.989 84.9609 108.069 83.3445 108.069H74.8456L77.948 81.7633ZM82.1453 103.495V103.548C82.6145 103.548 83.0317 103.495 83.3184 103.389C84.257 103.283 85.0912 103.151 85.2216 102.94C85.4823 102.543 85.7169 101.459 85.9255 99.7144L87.1247 89.4831C87.2551 88.2934 87.3072 87.5267 87.2811 87.183C87.2551 86.8393 87.0986 86.6014 86.864 86.4428C86.7076 86.337 85.6126 86.2841 84.5698 86.2313H84.5437H84.5177H84.4916H84.4655H84.4395H84.4134C83.7877 86.2048 83.1881 86.2048 82.9274 86.2048L80.8939 103.548C81.1546 103.548 81.6239 103.548 82.1453 103.495ZM97.2661 81.7633H108.502L107.877 86.9979H103.393L102.793 92.0211H106.99L106.391 96.9913H102.193L101.516 102.781H106.469L105.843 108.016H94.1637L97.2661 81.7633ZM118.8 81.7633L116.323 102.781H120.39L119.765 108.016H108.946L112.048 81.7369H118.8V81.7633ZM132.461 81.7633L129.359 108.042H122.606L125.709 81.7633H132.461V81.7633ZM152.353 81.7633L145.835 108.042H135.642L134.833 81.7633H141.951C141.898 89.0072 141.768 95.1407 141.533 100.137C142.498 95.0614 143.384 90.567 144.245 86.6543L145.262 81.7633H152.353V81.7633ZM154.699 81.7633H165.935L165.31 86.9979H160.826L160.226 92.0211H164.423L163.85 96.9913H159.652L158.975 102.781H163.928L163.302 108.016H151.597L154.699 81.7633ZM169.507 81.7633H174.278C177.458 81.7633 179.596 81.8955 180.691 82.1334C181.786 82.3714 182.62 83.0059 183.22 84.037C183.82 85.068 183.976 86.6807 183.715 88.9279C183.481 90.9636 183.063 92.3383 182.464 93.0521C181.89 93.766 180.848 94.1625 179.361 94.3211C180.665 94.6648 181.499 95.1143 181.89 95.6694C182.281 96.2246 182.516 96.7534 182.568 97.2293C182.62 97.7051 182.516 99.0006 182.281 101.116L181.473 108.042H175.216L176.259 99.2914C176.416 97.8902 176.416 97.0178 176.233 96.6741C176.051 96.3304 175.503 96.1718 174.591 96.1718L173.183 108.016H166.431L169.507 81.7633ZM175.034 92.0475V92.074C175.425 92.074 175.764 92.0475 176.024 91.9946C176.833 91.9418 177.641 91.8625 177.797 91.7303C178.423 91.3073 178.997 87.2095 178.397 86.6014C178.24 86.4163 177.146 86.3106 176.207 86.2577C176.103 86.2577 175.972 86.2313 175.868 86.2313C175.555 86.2048 175.268 86.2048 175.086 86.2048L174.408 92.0475C174.565 92.0739 174.773 92.0739 175.034 92.0475ZM202.694 81.7633L195.812 98.5247L194.691 108.042H188.46L189.581 98.5247L186.818 81.7633H192.996C193.335 86.8922 193.492 90.3555 193.413 92.1268C194.143 89.3245 195.16 85.8611 196.516 81.7633H202.694V81.7633ZM17.7516 65.4249C15.2228 65.4249 13.1632 63.5743 13.1632 61.3007C13.1632 59.0271 15.2228 57.15 17.7516 57.15H62.2797C64.8085 57.15 66.8681 59.0006 66.8681 61.3007C66.8681 63.6008 64.8085 65.4249 62.2797 65.4249H17.7516ZM5.13355 87.8175C-0.497641 87.8175 -0.497641 79.4897 5.13355 79.4897H56.1532C59.5423 79.4897 62.2536 81.3668 62.2536 83.6404C62.2536 85.9405 59.5162 87.7911 56.1532 87.7911H5.13355V87.8175ZM106.73 144.843C108.998 144.843 110.823 146.694 110.823 148.967C110.823 151.268 108.998 153.118 106.73 153.118H69.6055C65.4863 153.118 61.7322 151.294 58.9688 148.412C56.2574 145.531 54.5368 141.618 54.5368 137.441V107.038C54.5368 104.738 56.3617 102.887 58.6038 102.887C60.8719 102.887 62.6968 104.738 62.6968 107.038V137.441C62.6968 139.424 63.505 141.327 64.8085 142.702C66.0599 144.024 67.7284 144.843 69.5533 144.843H106.73ZM148.207 121.922C132.956 121.922 120.573 134.48 120.573 149.946C120.573 165.412 132.956 177.969 148.207 177.969C163.459 177.969 175.842 165.412 175.842 149.946C175.842 134.48 163.485 121.922 148.207 121.922ZM148.207 139.186C142.342 139.186 137.571 143.997 137.571 149.972C137.571 155.921 142.316 160.759 148.207 160.759C154.073 160.759 158.844 155.947 158.844 149.972C158.818 143.997 154.073 139.186 148.207 139.186ZM272.876 117.798C257.625 117.798 245.241 130.355 245.241 145.821C245.241 161.287 257.625 173.845 272.876 173.845C288.127 173.845 300.51 161.287 300.51 145.821C300.51 130.355 288.153 117.798 272.876 117.798ZM262.265 145.848C262.265 151.796 267.01 156.634 272.902 156.634C278.768 156.634 283.539 151.823 283.539 145.848C283.539 139.873 278.794 135.061 272.902 135.061C267.01 135.061 262.265 139.899 262.265 145.848ZM244.589 55.7224L232.128 55.4844V82.3449H258.511C255.252 72.7481 250.455 63.9709 244.589 55.7224Z" fill="black"/>
<path fill-rule="evenodd" clip-rule="evenodd" d="M29.6606 43.0062C27.1318 43.0062 25.0723 41.1556 25.0723 38.882C25.0723 36.5819 27.1318 34.7313 29.6606 34.7313H68.3229C70.8517 34.7313 72.9113 36.5819 72.9113 38.882C72.9113 41.182 70.8517 43.0062 68.3229 43.0062H29.6606ZM88.5535 26.0862H107.95L106.907 35.0221H98.9816L97.9649 43.5614H104.978L103.987 52.0478H96.9742L94.7582 70.792H83.2612L88.5535 26.0862ZM130.892 26.0862L132.169 70.8185H120.464L120.776 62.7815H116.631L115.067 70.8185H103.205L114.311 26.0862H130.892V26.0862ZM121.402 54.8502C121.454 49.7742 121.611 43.5085 121.897 36.0003C119.76 44.5925 118.3 50.8581 117.518 54.8502H121.402ZM163.532 39.6486H152.895L153.286 36.344C153.469 34.8106 153.443 33.806 153.234 33.383C153.025 32.96 152.582 32.7485 151.956 32.7485C151.279 32.7485 150.705 33.0393 150.288 33.5945C149.871 34.1496 149.584 35.0221 149.454 36.1853C149.271 37.6658 149.349 38.8026 149.662 39.5429C149.975 40.2831 150.94 41.2085 152.582 42.266C157.301 45.3591 160.221 47.8707 161.29 49.8535C162.385 51.8363 162.671 55.0088 162.15 59.371C161.785 62.57 161.133 64.8965 160.221 66.4298C159.308 67.9368 157.744 69.2058 155.528 70.2104C153.312 71.2415 150.809 71.7438 147.994 71.7438C144.918 71.7438 142.389 71.1622 140.355 69.9725C138.322 68.7828 137.096 67.3023 136.627 65.4781C136.184 63.6539 136.158 61.063 136.549 57.7055L136.888 54.7709H147.525L146.899 60.2435C146.69 61.909 146.716 62.993 146.951 63.4688C147.186 63.9447 147.681 64.1826 148.463 64.1826C149.219 64.1826 149.819 63.8918 150.262 63.2573C150.705 62.6493 150.992 61.7504 151.148 60.5607C151.461 57.9434 151.305 56.1985 150.705 55.4054C150.079 54.5858 148.437 53.2375 145.83 51.334C143.223 49.4305 141.502 48.0293 140.668 47.1569C139.86 46.2845 139.208 45.0948 138.791 43.5614C138.374 42.028 138.296 40.0716 138.582 37.7187C138.973 34.3083 139.703 31.7967 140.772 30.2105C141.815 28.6242 143.353 27.3816 145.387 26.5092C147.42 25.6103 149.793 25.1609 152.504 25.1609C155.476 25.1609 157.953 25.6632 159.934 26.615C161.915 27.5931 163.141 28.8093 163.662 30.3162C164.157 31.7967 164.21 34.3083 163.792 37.8509L163.532 39.6486ZM194.269 26.0862L193.226 35.0221H186.474L182.25 70.8185H170.753L174.977 35.0221H168.172L169.215 26.0862H194.269V26.0862Z" fill="black"/>
</svg>
