<svg width="214" height="196" viewBox="0 0 214 196" fill="none" xmlns="http://www.w3.org/2000/svg">
<path d="M61.8594 42.4022H68.1078V36.7092H68.1425C68.1425 34.6091 68.993 32.6999 70.3641 31.3287L70.3468 31.3113C71.7006 29.9575 73.5925 29.1071 75.7099 29.1071H75.7273V29.0724H87.4256V10.6571H87.4603C87.4603 7.86268 88.6058 5.32863 90.4283 3.5062C92.2507 1.68376 94.7674 0.572944 97.5444 0.555587V0.520874H115.248V0.555587C118.042 0.555587 120.577 1.70112 122.399 3.52355C124.204 5.34599 125.332 7.86268 125.35 10.6397H125.367V29.0897H137.065V29.1244C139.165 29.1244 141.075 29.9749 142.446 31.3634C143.8 32.7172 144.65 34.6091 144.65 36.6919V36.7092H144.667V42.4022H150.916V42.3674V42.4022C153.189 42.4022 155.238 43.3221 156.73 44.7974L156.748 44.78C158.223 46.2553 159.125 48.3034 159.143 50.5944H159.177V83.3636H159.143C159.143 84.162 159.021 84.943 158.813 85.6893L182.453 97.1793L158.344 121.739V146.246C162.041 144.389 164.957 141.629 167.699 139.026C173.236 133.784 178.287 128.994 187.017 128.89C196.841 128.786 200.017 133.854 206.786 139.061C207.88 139.911 209.008 140.779 210.518 141.872L210.692 141.994C213.59 144.094 214.25 148.155 212.132 151.054C210.032 153.97 205.971 154.612 203.055 152.512L202.881 152.39C201.753 151.575 200.295 150.447 198.854 149.336C193.89 145.5 192.467 141.803 187.104 141.855C183.529 141.89 180.231 145.014 176.638 148.433C169.852 154.872 162.302 162.023 147.462 161.346C134.913 161.919 127.589 156.886 121.514 151.418H89.9944C83.6419 156.192 76.734 160.531 66.6846 160.409C55.1945 160.548 47.8007 154.855 40.6498 149.336C35.6858 145.5 30.8781 141.803 25.5149 141.855C21.9394 141.89 18.6417 145.014 15.0489 148.433C13.7125 149.7 12.3413 151.002 10.8139 152.304C8.08894 154.647 3.99281 154.317 1.66703 151.592C-0.658742 148.867 -0.346325 144.771 2.37865 142.445C3.62832 141.369 4.87799 140.189 6.1103 139.026C11.647 133.784 16.6978 128.994 25.4281 128.89C35.2519 128.786 41.8127 133.854 48.5817 139.061C51.6365 141.421 54.7433 143.799 58.1278 145.43V120.94L37.595 96.7801L54.778 87.5465C54.0664 86.3315 53.6498 84.9083 53.6498 83.3983H53.6325V50.6118H53.6498C53.6498 48.3207 54.5697 46.2553 56.045 44.78C56.3054 44.5197 56.5831 44.294 56.8608 44.0857C58.2319 43.0444 59.9676 42.4195 61.8594 42.4022V42.3674V42.4022ZM66.6846 182.053H66.754C73.7834 182.157 79.3722 177.852 84.7874 173.67C91.5564 168.445 98.1172 163.377 107.941 163.499C116.671 163.585 121.722 168.376 127.259 173.635C132.171 178.304 137.638 183.476 147.149 182.99C147.271 182.99 147.375 182.99 147.497 182.99C147.618 182.99 147.722 182.99 147.844 182.99C157.338 183.493 162.805 178.304 167.734 173.635C173.271 168.393 178.322 163.603 187.052 163.499C196.876 163.394 200.052 168.445 206.821 173.67C207.915 174.52 209.043 175.388 210.553 176.481L210.709 176.603C213.607 178.686 214.267 182.747 212.184 185.646C210.084 188.544 206.04 189.204 203.142 187.121L202.968 186.999L202.951 186.982L202.933 186.999C201.805 186.184 200.347 185.055 198.907 183.945C193.943 180.109 192.519 176.412 187.156 176.464C183.581 176.499 180.283 179.623 176.69 183.042C169.904 189.481 162.354 196.632 147.514 195.955C132.691 196.632 125.141 189.481 118.338 183.042C114.727 179.623 111.447 176.516 107.872 176.464C102.526 176.412 97.7007 180.126 92.7367 183.945C85.5858 189.464 78.1919 195.157 66.7019 195.018C55.2119 195.157 47.818 189.464 40.6671 183.945C35.7032 180.109 30.8954 176.412 25.5322 176.464C21.9568 176.499 18.6591 179.623 15.0663 183.042C13.7298 184.309 12.3586 185.611 10.8313 186.913C8.1063 189.238 4.01016 188.926 1.68439 186.201C-0.641385 183.476 -0.328968 179.38 2.39601 177.054C3.64568 175.978 4.89534 174.798 6.12766 173.635C11.6644 168.393 16.7151 163.603 25.4455 163.499C35.2693 163.394 41.83 168.445 48.5991 173.67C54.0143 177.835 59.6031 182.157 66.6325 182.053H66.6846ZM71.4055 78.6079L105.98 60.019L144.251 78.6079H146.195V55.3675H138.784C138.593 55.3848 138.402 55.3848 138.193 55.3848C134.601 55.3848 131.685 52.4689 131.685 48.8761V42.1071H118.876C115.283 42.1071 112.367 39.1912 112.367 35.5984V13.5383H100.426V35.6158C100.426 39.2086 97.5097 42.1245 93.9169 42.1245H81.1078V48.8935H81.0905C81.0905 52.4689 78.1919 55.3675 74.6165 55.3675H66.6325V78.6079H71.4055V78.6079Z" fill="black"/>
</svg>
