<svg width="90" height="90" viewBox="0 0 90 90" fill="none" xmlns="http://www.w3.org/2000/svg">
<rect width="90" height="90" rx="18.5263" fill="white"/>
<path d="M24 76V65.824H20.064V64.8H29.12V65.824H25.184V76H24ZM32.0675 69.808H37.9875V70.816H32.0675V69.808ZM32.1955 74.976H38.9315V76H31.0115V64.8H38.6915V65.824H32.1955V74.976ZM41.7146 76V64.8H45.9066C46.856 64.8 47.672 64.9547 48.3546 65.264C49.0373 65.5627 49.56 66 49.9226 66.576C50.296 67.1413 50.4826 67.8293 50.4826 68.64C50.4826 69.4293 50.296 70.112 49.9226 70.688C49.56 71.2533 49.0373 71.6907 48.3546 72C47.672 72.3093 46.856 72.464 45.9066 72.464H42.3706L42.8986 71.904V76H41.7146ZM42.8986 72L42.3706 71.424H45.8746C46.9946 71.424 47.8426 71.184 48.4186 70.704C49.0053 70.2133 49.2986 69.5253 49.2986 68.64C49.2986 67.744 49.0053 67.0507 48.4186 66.56C47.8426 66.0693 46.9946 65.824 45.8746 65.824H42.3706L42.8986 65.264V72ZM50.6883 76L55.8083 64.8H56.9763L62.0963 76H60.8483L56.1443 65.488H56.6243L51.9203 76H50.6883ZM52.7043 73.008L53.0563 72.048H59.5683L59.9203 73.008H52.7043ZM65.5625 76V65.824H61.6265V64.8H70.6825V65.824H66.7465V76H65.5625Z" fill="#277EFF"/>
<path d="M52.1924 51.3854L38.6276 46.5887L29.3953 50.2507C28.8107 50.5602 28.2348 50.543 27.6674 50.1991C27.1001 49.8553 26.8164 49.3395 26.8164 48.6518V19.8718C26.8164 19.4248 26.9453 19.0294 27.2032 18.6855C27.4611 18.3417 27.7964 18.0838 28.209 17.9119L38.6276 14.2499L52.1924 18.995L61.3731 15.333C61.9576 15.0579 62.5336 15.0837 63.1009 15.4104C63.6683 15.737 63.9519 16.2442 63.9519 16.9319V46.073C63.9519 46.4512 63.823 46.7779 63.5651 47.0529C63.3072 47.328 62.9892 47.5343 62.6109 47.6719L52.1924 51.3854ZM50.4387 47.5171V21.4707L40.3296 18.0666V44.113L50.4387 47.5171Z" fill="#277EFF"/>
</svg>
