<svg width="90" height="90" viewBox="0 0 90 90" fill="none" xmlns="http://www.w3.org/2000/svg">
<rect width="90" height="90" rx="18.5263" fill="white"/>
<path d="M16 73V62.824H12.064V61.8H21.12V62.824H17.184V73H16ZM27.3048 73.096C25.8754 73.096 24.7501 72.6853 23.9288 71.864C23.1074 71.0427 22.6968 69.8267 22.6968 68.216V61.8H23.8808V68.168C23.8808 69.4907 24.1794 70.4667 24.7768 71.096C25.3741 71.7253 26.2168 72.04 27.3048 72.04C28.4034 72.04 29.2514 71.7253 29.8488 71.096C30.4461 70.4667 30.7448 69.4907 30.7448 68.168V61.8H31.8968V68.216C31.8968 69.8267 31.4861 71.0427 30.6648 71.864C29.8541 72.6853 28.7341 73.096 27.3048 73.096ZM35.4646 73V61.8H36.4406L44.1686 71.528H43.6566V61.8H44.8246V73H43.8486L36.1366 63.272H36.6486V73H35.4646ZM50.6562 73V62.824H46.7203V61.8H55.7763V62.824H51.8403V73H50.6562ZM55.3133 73L60.4333 61.8H61.6013L66.7213 73H65.4733L60.7693 62.488H61.2493L56.5453 73H55.3133ZM57.3293 70.008L57.6813 69.048H64.1933L64.5453 70.008H57.3293ZM71.662 73.096C70.83 73.096 70.03 72.9627 69.262 72.696C68.5047 72.4187 67.918 72.0667 67.502 71.64L67.966 70.728C68.3607 71.112 68.8887 71.4373 69.55 71.704C70.222 71.96 70.926 72.088 71.662 72.088C72.366 72.088 72.9367 72.0027 73.374 71.832C73.822 71.6507 74.1473 71.4107 74.35 71.112C74.5633 70.8133 74.67 70.4827 74.67 70.12C74.67 69.6827 74.542 69.3307 74.286 69.064C74.0407 68.7973 73.7153 68.5893 73.31 68.44C72.9047 68.28 72.4567 68.1413 71.966 68.024C71.4753 67.9067 70.9847 67.784 70.494 67.656C70.0033 67.5173 69.55 67.336 69.134 67.112C68.7287 66.888 68.398 66.5947 68.142 66.232C67.8967 65.8587 67.774 65.3733 67.774 64.776C67.774 64.2213 67.918 63.7147 68.206 63.256C68.5047 62.7867 68.958 62.4133 69.566 62.136C70.174 61.848 70.9527 61.704 71.902 61.704C72.5313 61.704 73.1553 61.7947 73.774 61.976C74.3927 62.1467 74.926 62.3867 75.374 62.696L74.974 63.64C74.494 63.32 73.982 63.0853 73.438 62.936C72.9047 62.7867 72.3873 62.712 71.886 62.712C71.214 62.712 70.6593 62.8027 70.222 62.984C69.7847 63.1653 69.4593 63.4107 69.246 63.72C69.0433 64.0187 68.942 64.36 68.942 64.744C68.942 65.1813 69.0647 65.5333 69.31 65.8C69.566 66.0667 69.8967 66.2747 70.302 66.424C70.718 66.5733 71.1713 66.7067 71.662 66.824C72.1527 66.9413 72.638 67.0693 73.118 67.208C73.6087 67.3467 74.0567 67.528 74.462 67.752C74.878 67.9653 75.2087 68.2533 75.454 68.616C75.71 68.9787 75.838 69.4533 75.838 70.04C75.838 70.584 75.6887 71.0907 75.39 71.56C75.0913 72.0187 74.6327 72.392 74.014 72.68C73.406 72.9573 72.622 73.096 71.662 73.096Z" fill="#277EFF"/>
<path d="M43.1748 33.9298L52.274 24.8307L50.2361 22.7929L43.1748 29.8542L40.0944 26.7737L38.0565 28.8116L43.1748 33.9298ZM45.1653 51.0382C40.0786 46.7097 36.2794 42.6894 33.7676 38.977C31.2559 35.2647 30 31.8288 30 28.6694C30 23.9302 31.5244 20.1547 34.5733 17.3428C37.6221 14.5309 41.1528 13.125 45.1653 13.125C49.1777 13.125 52.7084 14.5309 55.7572 17.3428C58.8061 20.1547 60.3305 23.9302 60.3305 28.6694C60.3305 31.8288 59.0746 35.2647 56.5629 38.977C54.0512 42.6894 50.2519 46.7097 45.1653 51.0382Z" fill="#277EFF"/>
</svg>
